<svg id="Layer_1" enable-background="new 0 0 512 512" height="512" viewBox="0 0 512 512" width="512" xmlns="http://www.w3.org/2000/svg"><g><g><path clip-rule="evenodd" d="m178.093 259.898 82.91 73.926 62.274-55.53 105.444 94.023v-138.923c-13.152 5.187-27.466 8.05-42.461 8.05-60.177 0-109.639-45.949-115.195-104.681h-219.051v235.555zm-56.095-79.001c14.286 0 25.851 11.593 25.851 25.851 0 14.286-11.565 25.851-25.851 25.851s-25.851-11.565-25.851-25.851c.001-14.257 11.565-25.851 25.851-25.851z" fill="#66e0f7" fill-rule="evenodd"/></g><g><path clip-rule="evenodd" d="m121.998 232.6c14.286 0 25.851-11.565 25.851-25.851 0-14.258-11.565-25.851-25.851-25.851s-25.851 11.593-25.851 25.851c.001 14.286 11.565 25.851 25.851 25.851z" fill="#ffcd69" fill-rule="evenodd"/></g><g><path clip-rule="evenodd" d="m52.014 387.029h268.655l-59.666-53.205-82.91-73.926-126.079 112.419z" fill="#a0e5a5" fill-rule="evenodd"/></g><g><path clip-rule="evenodd" d="m320.669 387.029h108.052v-14.712l-105.444-94.023-62.274 55.53z" fill="#a0e5a5" fill-rule="evenodd"/></g><g><path clip-rule="evenodd" d="m102.298 500.328 122.593-71.318h221.886c13.124 0 23.923-10.8 23.923-23.924v-200.236c-11.593 12.387-25.907 22.223-41.979 28.544v138.923 14.712h-108.052-268.655v-14.712-235.554h219.051c-.34-3.628-.51-7.313-.51-11.055 0-10.715 1.446-21.089 4.167-30.954h-240.792c-13.152 0-23.923 10.771-23.923 23.924v286.407c0 13.153 10.771 23.924 23.923 23.924h65.534v71.318h2.834z" fill="#faf7f5" fill-rule="evenodd"/></g><g><path clip-rule="evenodd" d="m271.065 136.763c5.556 58.733 55.018 104.681 115.195 104.681 14.995 0 29.309-2.863 42.461-8.05 16.072-6.321 30.386-16.157 41.979-28.544 19.416-20.693 31.293-48.528 31.293-79.142 0-63.892-51.815-115.708-115.733-115.708-53.176 0-97.989 35.886-111.538 84.754-2.721 9.864-4.167 20.239-4.167 30.954 0 3.742.17 7.427.51 11.055z" fill="#ffcd69" fill-rule="evenodd"/></g><g><path d="m511.993 125.708c0-69.315-56.403-125.708-125.733-125.708-54.981 0-101.825 35.485-118.849 84.754h-233.481c-18.705 0-33.923 15.218-33.923 33.924v98.304c0 5.523 4.478 10 10 10s10-4.477 10-10v-98.304c0-7.678 6.246-13.924 13.923-13.924h228.382c-1.149 6.817-1.756 13.815-1.756 20.954 0 .353.01.703.013 1.055h-208.555c-5.522 0-10 4.477-10 10v250.266c0 5.523 4.478 10 10 10h376.707c5.522 0 10-4.477 10-10v-147.067c7.787-3.59 15.146-7.952 21.979-12.99v178.113c0 7.547-6.376 13.924-13.923 13.924h-221.885c-1.767 0-3.502.468-5.029 1.357l-110.398 64.245v-55.602c0-5.523-4.478-10-10-10h-65.535c-7.677 0-13.923-6.246-13.923-13.924v-98.304c0-5.523-4.478-10-10-10s-10 4.477-10 10v98.304c0 18.706 15.218 33.924 33.923 33.924h55.534v62.991c0 3.579 1.912 6.885 5.015 8.669 1.544.888 3.265 1.331 4.985 1.331 1.737 0 3.476-.453 5.029-1.357l123.097-71.634h219.188c18.705 0 33.923-15.218 33.923-33.924v-196.466c19.467-22.15 31.292-51.174 31.292-82.911zm-125.733-105.708c58.302 0 105.733 47.42 105.733 105.708 0 58.303-47.432 105.736-105.733 105.736-58.285 0-105.704-47.433-105.704-105.736 0-58.288 47.419-105.708 105.704-105.708zm-324.246 356.799 116.08-103.503 116.335 103.733h-232.415zm262.467.23-48.453-43.204 47.25-42.132 95.443 85.106v.23zm94.24-27.027-88.788-79.172c-3.793-3.382-9.518-3.382-13.311 0l-55.62 49.596-76.253-67.993c-3.793-3.381-9.518-3.381-13.311 0l-109.424 97.57v-203.24h200.314c10.045 59.342 61.791 104.682 123.932 104.682 11.222 0 22.101-1.486 32.461-4.257z"/><path d="m355.052 97.526c2.561 0 5.122-.978 7.074-2.932l14.134-14.147v58.952c0 5.523 4.478 10 10 10s10-4.477 10-10v-58.968l14.165 14.165c1.953 1.953 4.512 2.929 7.071 2.929s5.118-.977 7.071-2.929c3.905-3.905 3.905-10.237 0-14.142l-31.236-31.237c-1.168-1.168-2.639-2.049-4.225-2.517-3.255-.964-6.897-.226-9.557 2.19-.12.109-.245.21-.361.326-.002.002-.003.003-.005.005l-31.206 31.235c-3.903 3.907-3.9 10.239.007 14.142 1.953 1.953 4.51 2.928 7.068 2.928z"/><path d="m328.322 188.148h115.875c5.522 0 10-4.477 10-10v-27.07c0-5.523-4.478-10-10-10s-10 4.477-10 10v17.07h-95.875v-17.07c0-5.523-4.478-10-10-10s-10 4.477-10 10v27.07c0 5.523 4.478 10 10 10z"/><path d="m121.998 170.897c-19.769 0-35.851 16.083-35.851 35.852s16.082 35.852 35.851 35.852 35.851-16.083 35.851-35.852-16.082-35.852-35.851-35.852zm0 51.704c-8.74 0-15.851-7.111-15.851-15.852s7.11-15.852 15.851-15.852 15.851 7.111 15.851 15.852-7.111 15.852-15.851 15.852z"/><path d="m10.007 271.882c5.522 0 10-4.477 10-10v-.028c0-5.523-4.478-9.986-10-9.986s-10 4.491-10 10.014 4.477 10 10 10z"/></g></g></svg>